<svg xmlns="http://www.w3.org/2000/svg" viewBox="0 0 512 512" width="512" height="512" role="img" aria-label="devsecforge forge shield logo">
  <defs>
    <radialGradient id="bg" cx="0.5" cy="0.4" r="0.68">
      <stop offset="0" stop-color="#2F5BF0"/>
      <stop offset="0.6" stop-color="#2B50E4"/>
      <stop offset="1" stop-color="#1E3AA8"/>
    </radialGradient>
  </defs>
  <circle cx="256" cy="256" r="248" fill="url(#bg)"/>
  <circle cx="256" cy="256" r="248" fill="none" stroke="#22D3EE" stroke-width="16"/>
  <g transform="translate(150,100) scale(1.9)">
    <path d="M56,4 L112,24 L112,80 C112,122 86,146 56,158 C26,146 0,122 0,80 L0,24 Z" fill="#0B1533" stroke="#22D3EE" stroke-width="6"/>
    <rect x="26" y="72" width="20" height="12" fill="#F2F7FF"/>
    <path d="M32,84 L80,84 L90,104 L22,104 Z" fill="#F2F7FF"/>
    <path d="M28,104 L84,104 L84,118 L28,118 Z" fill="#22D3EE"/>
    <path d="M88,44 l4,14 l14,4 l-14,4 l-4,14 l-4,-14 l-14,-4 l14,-4 Z" fill="#EAF7FF"/>
  </g>
</svg>
