<svg xmlns="http://www.w3.org/2000/svg" viewBox="0 0 512 512" width="512" height="512" role="img" aria-label="devsecforge forge shield logo">
  <defs>
    <radialGradient id="g" cx="0.5" cy="0.42" r="0.6">
      <stop offset="0" stop-color="#173540"/>
      <stop offset="1" stop-color="#0F2027"/>
    </radialGradient>
  </defs>
  <!-- circle -->
  <circle cx="256" cy="256" r="248" fill="url(#g)"/>
  <circle cx="256" cy="256" r="248" fill="none" stroke="#36BCF7" stroke-width="14"/>
  <!-- forge shield -->
  <g transform="translate(150,100) scale(1.9)">
    <path d="M56,4 L112,24 L112,80 C112,122 86,146 56,158 C26,146 0,122 0,80 L0,24 Z"
          fill="#122A33" stroke="#36BCF7" stroke-width="5"/>
    <!-- anvil -->
    <rect x="26" y="72" width="20" height="12" fill="#EAF7FF"/>
    <path d="M32,84 L80,84 L90,104 L22,104 Z" fill="#EAF7FF"/>
    <path d="M28,104 L84,104 L84,118 L28,118 Z" fill="#36BCF7"/>
    <!-- spark -->
    <path d="M88,44 l4,14 l14,4 l-14,4 l-4,14 l-4,-14 l-14,-4 l14,-4 Z" fill="#36BCF7"/>
  </g>
</svg>
